PathFileType	4	(x/y/z)	S08_P20_T14
DataRate	CameraRate	NumFrames	NumMarkers	Units	OrigDataRate	OrigDataStartFrame	OrigNumFrames
240	240	11	51	mm	240	296	394
Frame#	Time	Sternum			R.Acromium			L.Acromium			Top.Head			R.ASIS			L.ASIS			R.PSIS			L.PSIS			R.Great.Tro			L.Great.Tro			R.Iliac.Crest			L.Iliac.Crest			V.Sacral			R.Thigh.Upper.Post			R.Thigh.Lower.Ant			R.Thigh.Lower.Post			R.Thigh.Upper.Ant			R.Knee.Lat			R.Knee.Med			R.Shank.Upper.Post			R.Shank.Lower.Ant			R.Shank.Lower.Post			R.Shank.Upper.Ant			R.Ankle.Lat			R.Ankle.Med			R.Heel.Upper			R.Heel.Med			R.Heel.Lat			R.Toe.Lat			R.Toe.Med			R.Toe.Tip			L.Thigh.Upper.Post			L.Thigh.Lower.Ant			L.Thigh.Lower.Post			L.Thigh.Upper.Ant			L.Knee.Lat			L.Knee.Med			L.Shank.Upper.Post			L.Shank.Lower.Ant			L.Shank.Lower.Post			L.Shank.Upper.Ant			L.Ankle.Lat			L.Ankle.Med			L.Heel.Upper			L.Heel.Med			L.Heel.Lat			L.Toe.Lat			L.Toe.Med			L.Toe.Tip			Cervical.Spine			Back			
		X1	Y1	Z1	X2	Y2	Z2	X3	Y3	Z3	X4	Y4	Z4	X5	Y5	Z5	X6	Y6	Z6	X7	Y7	Z7	X8	Y8	Z8	X9	Y9	Z9	X10	Y10	Z10	X11	Y11	Z11	X12	Y12	Z12	X13	Y13	Z13	X14	Y14	Z14	X15	Y15	Z15	X16	Y16	Z16	X17	Y17	Z17	X18	Y18	Z18	X19	Y19	Z19	X20	Y20	Z20	X21	Y21	Z21	X22	Y22	Z22	X23	Y23	Z23	X24	Y24	Z24	X25	Y25	Z25	X26	Y26	Z26	X27	Y27	Z27	X28	Y28	Z28	X29	Y29	Z29	X30	Y30	Z30	X31	Y31	Z31	X32	Y32	Z32	X33	Y33	Z33	X34	Y34	Z34	X35	Y35	Z35	X36	Y36	Z36	X37	Y37	Z37	X38	Y38	Z38	X39	Y39	Z39	X40	Y40	Z40	X41	Y41	Z41	X42	Y42	Z42	X43	Y43	Z43	X44	Y44	Z44	X45	Y45	Z45	X46	Y46	Z46	X47	Y47	Z47	X48	Y48	Z48	X49	Y49	Z49	X50	Y50	Z50	X51	Y51	Z51	

296	1.2292	218.49	1242.1	282.78	100.26	1477.9	458.33	85.256	1502.9	122.23	102.21	1797	311.35	183.6	1026.3	392.11	186.57	1030.7	163.36	-16.587	1051.2	318.48	-11.626	1057.7	225.44	127.79	916.58	462.52	96.095	924.81	94.388	88.394	1093.8	439.39	93.888	1113.5	133.55	-31.123	1013.8	269.21	192.63	721.85	449.89	303.98	662.69	420.98	235.21	642.78	430.83	267.06	748.63	441	299.7	558.82	416.21	286.14	559.12	285.13	164.53	427.14	420.08	186.03	341.57	400.88	125.46	361.06	414.2	225.83	408.22	409.88	37.58	222.17	380.54	74.808	215.52	304.89	-18.561	211.27	329.26	-20.45	181.36	303.49	-29.185	189.94	364.54	NaN	NaN	NaN	141.35	91.525	307.95	201.89	77.855	358.81	81.09	712.36	111.75	167.9	624.74	137.88	98.866	624.4	132.02	152.15	709.69	113.74	114.02	524.1	153.33	117.7	524.93	278.2	44.011	344.97	154.39	106.1	254.64	178.49	36.997	272.98	171.23	107.24	329.71	161.31	50.053	100.75	188.84	72.185	106.16	275.16	-3.4219	75.487	238.03	11.003	41.023	268.22	5.8557	47.963	205.11	182.08	40.132	173.19	199.96	45.861	288.87	263.03	63.599	240.53	25.661	1533.2	285.85	-17.004	1251.5	293.54
297	1.2333	223.6	1242.4	282.77	105.33	1478.2	458.3	90.612	1503.4	122.29	107.48	1797.2	311.42	188.48	1026.7	392.02	191.54	1030.7	163.33	-11.658	1051.5	318.45	-6.6314	1057.9	225.4	133.01	917.32	462.69	100.84	924.84	94.445	93.312	1094.3	439.26	98.941	1113.5	133.46	-26.132	1014.1	269.22	198.92	722.75	450.13	310.48	664.25	420.68	241.89	643.93	430.92	273.06	749.93	440.77	306.6	560.2	415.92	292.72	560.51	285.17	173.83	425.56	419.84	197.27	340.52	400.9	136.27	358.64	414.04	235.53	408.02	409.8	51.6	217.64	380.5	89.092	211.82	304.88	-4.2648	204.96	329.21	-5.2692	174.92	303.55	-14.321	183.43	364.54	NaN	NaN	NaN	159.13	89.879	308.43	219.98	78.167	359.37	84.193	712.78	111.68	170.27	624.46	138.05	101.28	624.61	131.96	155.24	709.56	113.87	115.51	524.09	153.37	118.96	524.89	278.28	44.859	345.1	154.38	106.64	254.63	178.6	37.642	273.18	171.23	108	329.68	161.39	50.207	100.88	188.97	72.289	106.17	275.3	-3.3333	75.557	238.11	11.133	41.028	268.26	5.9012	48.07	205.15	182.12	40.114	173.2	200.01	45.622	288.88	263.11	63.323	240.55	30.857	1533.4	285.77	-11.924	1251.9	293.27
298	1.2375	228.71	1242.6	282.75	110.41	1478.5	458.27	95.981	1503.8	122.34	112.75	1797.4	311.5	193.37	1027.1	391.94	196.49	1030.7	163.3	-6.7244	1051.8	318.43	-1.6405	1058	225.37	138.24	918	462.87	105.58	924.82	94.514	98.24	1094.8	439.14	103.99	1113.5	133.39	-21.132	1014.3	269.25	205.12	723.57	450.35	316.84	665.66	420.39	248.41	644.97	430.99	278.97	751.1	440.55	313.32	561.46	415.64	299.09	561.78	285.24	183.11	423.83	419.63	208.52	339.37	400.92	147.13	356.08	413.89	245.18	407.71	409.74	65.79	213	380.45	103.54	208.04	304.87	10.28	198.56	329.13	10.171	168.42	303.57	0.78271	176.84	364.5	NaN	NaN	NaN	177.02	88.243	308.9	238.12	78.487	359.94	87.284	713.16	111.64	172.66	624.17	138.23	103.72	624.81	131.9	158.33	709.4	114	117.01	524.07	153.4	120.23	524.85	278.36	45.718	345.25	154.38	107.18	254.62	178.71	38.299	273.38	171.23	108.77	329.64	161.47	50.367	101.01	189.11	72.429	106.18	275.45	-3.2352	75.631	238.19	11.251	41.035	268.3	5.9493	48.181	205.19	182.16	40.094	173.22	200.06	45.377	288.9	263.18	63.043	240.57	36.067	1533.6	285.69	-6.8354	1252.2	293.01
299	1.2417	233.83	1242.9	282.74	115.5	1478.7	458.25	101.37	1504.1	122.4	118.01	1797.5	311.6	198.29	1027.4	391.87	201.45	1030.6	163.27	-1.7854	1052	318.42	3.3479	1058.1	225.35	143.47	918.63	463.05	110.32	924.75	94.595	103.18	1095.2	439.03	109.05	1113.5	133.33	-16.126	1014.5	269.28	211.21	724.3	450.55	323.05	666.92	420.1	254.78	645.91	431.05	284.79	752.15	440.33	319.87	562.59	415.38	305.26	562.91	285.34	192.36	421.94	419.44	219.79	338.15	400.95	158.02	353.37	413.75	254.79	407.29	409.68	80.152	208.28	380.37	118.15	204.21	304.84	25.071	192.09	329.02	25.865	161.88	303.55	16.123	170.19	364.42	NaN	NaN	NaN	195	86.632	309.36	256.29	78.824	360.5	90.364	713.5	111.63	175.06	623.87	138.41	106.18	625	131.83	161.44	709.23	114.13	118.53	524.05	153.44	121.53	524.81	278.43	46.587	345.4	154.37	107.73	254.6	178.82	38.968	273.59	171.23	109.55	329.6	161.55	50.532	101.14	189.25	72.605	106.18	275.61	-3.1276	75.711	238.28	11.358	41.043	268.34	5.9999	48.294	205.23	182.19	40.074	173.24	200.12	45.125	288.92	263.25	62.759	240.59	41.291	1533.7	285.61	-1.7376	1252.5	292.76
300	1.2458	238.97	1243	282.72	120.62	1478.8	458.24	106.77	1504.4	122.46	123.25	1797.6	311.71	203.22	1027.6	391.8	206.4	1030.5	163.24	3.1598	1052.2	318.42	8.3342	1058.2	225.35	148.71	919.19	463.25	115.06	924.64	94.688	108.13	1095.5	438.92	114.11	1113.4	133.28	-11.111	1014.6	269.33	217.19	724.95	450.73	329.13	668.04	419.82	261	646.74	431.08	290.54	753.07	440.13	326.24	563.6	415.14	311.22	563.91	285.48	201.59	419.9	419.27	231.06	336.85	400.97	168.95	350.54	413.61	264.34	406.78	409.63	94.684	203.5	380.28	132.91	200.35	304.79	40.103	185.58	328.86	41.807	155.35	303.48	31.696	163.52	364.29	NaN	NaN	NaN	213.06	85.065	309.8	274.48	79.189	361.07	93.434	713.8	111.64	177.47	623.56	138.6	108.66	625.16	131.78	164.55	709.03	114.26	120.07	524.02	153.48	122.86	524.76	278.51	47.466	345.55	154.37	108.29	254.59	178.93	39.647	273.8	171.24	110.33	329.56	161.62	50.704	101.27	189.39	72.815	106.19	275.78	-3.0111	75.795	238.37	11.453	41.052	268.38	6.0529	48.41	205.28	182.23	40.051	173.26	200.18	44.868	288.94	263.33	62.472	240.6	46.531	1533.8	285.55	3.37	1252.7	292.51
301	1.25	244.12	1243.1	282.71	125.75	1478.9	458.23	112.18	1504.6	122.52	128.5	1797.6	311.83	208.16	1027.8	391.74	211.35	1030.3	163.2	8.1122	1052.3	318.44	13.32	1058.1	225.36	153.94	919.69	463.45	119.8	924.48	94.793	113.09	1095.8	438.83	119.18	1113.2	133.25	-6.0906	1014.7	269.4	223.07	725.51	450.88	335.06	668.99	419.55	267.05	647.46	431.08	296.2	753.86	439.94	332.44	564.48	414.92	316.97	564.75	285.64	210.8	417.72	419.13	242.34	335.49	400.99	179.92	347.6	413.48	273.86	406.18	409.6	109.38	198.68	380.17	147.83	196.48	304.74	55.369	179.06	328.67	57.984	148.84	303.37	47.496	156.84	364.1	NaN	NaN	NaN	231.2	83.558	310.23	292.68	79.592	361.62	96.499	714.06	111.68	179.89	623.23	138.78	111.16	625.32	131.73	167.68	708.82	114.39	121.62	523.99	153.51	124.22	524.71	278.58	48.354	345.72	154.37	108.85	254.57	179.03	40.335	274.02	171.26	111.13	329.52	161.7	50.883	101.4	189.55	73.053	106.19	275.97	-2.8863	75.884	238.46	11.538	41.061	268.42	6.1082	48.528	205.33	182.27	40.027	173.27	200.24	44.607	288.97	263.41	62.182	240.62	51.787	1533.9	285.49	8.4881	1252.9	292.27
302	1.2542	249.28	1243.1	282.7	130.9	1478.9	458.23	117.61	1504.8	122.58	133.73	1797.6	311.97	213.13	1027.9	391.69	216.3	1030.1	163.17	13.073	1052.3	318.47	18.305	1058	225.38	159.17	920.13	463.65	124.53	924.29	94.908	118.06	1096	438.74	124.26	1113	133.22	-1.0636	1014.7	269.47	228.83	725.97	451	340.85	669.77	419.3	272.94	648.06	431.05	301.78	754.52	439.77	338.47	565.22	414.71	322.53	565.44	285.82	220	415.42	419.02	253.63	334.09	401.02	190.93	344.57	413.37	283.34	405.49	409.57	124.24	193.84	380.03	162.88	192.61	304.68	70.858	172.57	328.44	74.382	142.39	303.22	63.513	150.19	363.88	NaN	NaN	NaN	249.41	82.129	310.64	310.88	80.045	362.16	99.564	714.29	111.74	182.34	622.9	138.97	113.69	625.45	131.68	170.82	708.59	114.52	123.2	523.95	153.55	125.62	524.66	278.65	49.25	345.89	154.38	109.42	254.55	179.13	41.03	274.24	171.28	111.93	329.48	161.77	51.067	101.53	189.71	73.314	106.2	276.16	-2.7545	75.977	238.55	11.615	41.07	268.46	6.1658	48.648	205.38	182.31	40.001	173.29	200.31	44.343	289.01	263.49	61.888	240.63	57.058	1533.9	285.44	13.617	1253	292.04
303	1.2583	254.45	1243.1	282.69	136.07	1478.9	458.23	123.06	1504.9	122.64	138.95	1797.5	312.11	218.12	1027.9	391.65	221.25	1029.8	163.14	18.043	1052.3	318.51	23.292	1057.9	225.41	164.4	920.49	463.86	129.27	924.05	95.034	123.04	1096.1	438.66	129.36	1112.8	133.21	3.9698	1014.7	269.56	234.48	726.34	451.08	346.5	670.39	419.05	278.67	648.54	431	307.28	755.03	439.61	344.33	565.83	414.53	327.89	565.97	286.03	229.19	413	418.94	264.92	332.64	401.04	201.98	341.45	413.26	292.77	404.73	409.56	139.25	189	379.88	178.06	188.78	304.61	86.555	166.12	328.18	90.985	136.02	303.02	79.736	143.6	363.6	NaN	NaN	NaN	267.66	80.795	311.01	329.06	80.559	362.68	102.64	714.49	111.81	184.8	622.56	139.15	116.23	625.58	131.64	173.97	708.34	114.64	124.8	523.92	153.58	127.05	524.61	278.72	50.154	346.07	154.38	109.99	254.54	179.23	41.73	274.47	171.32	112.74	329.44	161.84	51.257	101.65	189.87	73.59	106.21	276.36	-2.6175	76.075	238.65	11.682	41.079	268.5	6.2253	48.77	205.43	182.35	39.973	173.31	200.39	44.075	289.04	263.57	61.59	240.65	62.346	1533.9	285.39	18.758	1253.1	291.82
304	1.2625	259.63	1243	282.69	141.26	1478.8	458.25	128.53	1505	122.69	144.16	1797.4	312.26	223.12	1027.9	391.62	226.2	1029.5	163.1	23.025	1052.2	318.57	28.282	1057.7	225.45	169.62	920.79	464.08	134.02	923.78	95.169	128.04	1096.2	438.59	134.48	1112.5	133.21	9.0103	1014.5	269.66	240.02	726.6	451.13	351.99	670.84	418.83	284.23	648.9	430.92	312.69	755.41	439.46	350.02	566.31	414.37	333.07	566.33	286.26	238.37	410.49	418.89	276.22	331.17	401.06	213.06	338.27	413.17	302.16	403.91	409.55	154.41	184.19	379.72	193.35	185.01	304.53	102.44	159.74	327.89	107.77	129.77	302.79	96.15	137.09	363.3	NaN	NaN	NaN	285.94	79.574	311.35	347.21	81.145	363.17	105.72	714.67	111.9	187.28	622.22	139.32	118.79	625.69	131.62	177.13	708.07	114.77	126.42	523.88	153.61	128.53	524.56	278.78	51.067	346.26	154.4	110.58	254.52	179.32	42.433	274.7	171.37	113.56	329.4	161.9	51.453	101.78	190.04	73.873	106.22	276.57	-2.4775	76.176	238.75	11.743	41.089	268.55	6.2867	48.894	205.49	182.39	39.943	173.33	200.47	43.805	289.09	263.66	61.287	240.66	67.649	1533.8	285.35	23.91	1253.2	291.6
305	1.2667	264.83	1242.8	282.68	146.46	1478.6	458.27	134.01	1505	122.75	149.37	1797.2	312.43	228.15	1027.9	391.6	231.16	1029.1	163.07	28.019	1052	318.64	33.279	1057.4	225.51	174.83	921.01	464.3	138.77	923.47	95.313	133.05	1096.2	438.53	139.62	1112.2	133.22	14.059	1014.4	269.77	245.44	726.76	451.15	357.35	671.12	418.62	289.62	649.13	430.82	318	755.64	439.34	355.55	566.66	414.23	338.07	566.53	286.49	247.54	407.89	418.87	287.52	329.69	401.08	224.18	335.06	413.1	311.5	403.03	409.55	169.69	179.43	379.55	208.74	181.3	304.44	118.5	153.46	327.58	124.72	123.67	302.53	112.74	130.69	362.96	NaN	NaN	NaN	304.22	78.483	311.64	365.32	81.818	363.61	108.82	714.82	112	189.78	621.86	139.49	121.37	625.79	131.6	180.31	707.78	114.89	128.06	523.84	153.64	130.05	524.51	278.84	51.986	346.45	154.42	111.17	254.51	179.41	43.135	274.93	171.43	114.39	329.37	161.96	51.655	101.91	190.22	74.155	106.24	276.78	-2.3373	76.28	238.85	11.797	41.099	268.59	6.3497	49.018	205.55	182.43	39.911	173.34	200.55	43.533	289.13	263.76	60.978	240.68	72.967	1533.6	285.32	29.074	1253.1	291.4
306	1.2708	270.03	1242.6	282.69	151.68	1478.4	458.3	139.5	1504.9	122.8	154.57	1797	312.6	233.19	1027.8	391.59	236.12	1028.7	163.05	33.026	1051.8	318.72	38.282	1057.1	225.57	180.03	921.17	464.53	143.53	923.12	95.464	138.08	1096.2	438.49	144.77	1111.8	133.25	19.117	1014.1	269.89	250.76	726.82	451.14	362.55	671.23	418.44	294.85	649.24	430.7	323.23	755.73	439.23	360.92	566.87	414.11	342.89	566.55	286.74	256.7	405.22	418.89	298.8	328.21	401.09	235.32	331.82	413.04	320.8	402.11	409.56	185.08	174.74	379.37	224.2	177.7	304.35	134.7	147.31	327.25	141.8	117.72	302.25	129.48	124.42	362.6	NaN	NaN	NaN	322.49	77.537	311.88	383.36	82.589	364	111.94	714.95	112.1	192.29	621.5	139.65	123.98	625.89	131.59	183.5	707.48	115.01	129.72	523.79	153.67	131.61	524.46	278.9	52.913	346.65	154.45	111.77	254.49	179.49	43.834	275.16	171.52	115.23	329.33	162.02	51.861	102.04	190.41	74.434	106.25	276.99	-2.1998	76.387	238.95	11.845	41.11	268.64	6.4141	49.144	205.62	182.47	39.877	173.35	200.64	43.259	289.17	263.86	60.663	240.69	78.299	1533.5	285.29	34.249	1253	291.2
